<svg width="19" height="19" viewBox="0 0 19 19" fill="none" xmlns="http://www.w3.org/2000/svg">
<path opacity="0.2" d="M16.0312 3.5625V6.53125H2.96875V3.5625C2.96875 3.40503 3.03131 3.25401 3.14266 3.14266C3.25401 3.03131 3.40503 2.96875 3.5625 2.96875H15.4375C15.595 2.96875 15.746 3.03131 15.8573 3.14266C15.9687 3.25401 16.0312 3.40503 16.0312 3.5625Z" fill="#88CEFD"/>
<path d="M15.4375 2.375H13.6562V1.78125C13.6562 1.62378 13.5937 1.47276 13.4823 1.36141C13.371 1.25006 13.22 1.1875 13.0625 1.1875C12.905 1.1875 12.754 1.25006 12.6427 1.36141C12.5313 1.47276 12.4688 1.62378 12.4688 1.78125V2.375H6.53125V1.78125C6.53125 1.62378 6.46869 1.47276 6.35734 1.36141C6.24599 1.25006 6.09497 1.1875 5.9375 1.1875C5.78003 1.1875 5.62901 1.25006 5.51766 1.36141C5.40631 1.47276 5.34375 1.62378 5.34375 1.78125V2.375H3.5625C3.24756 2.375 2.94551 2.50011 2.72281 2.72281C2.50011 2.94551 2.375 3.24756 2.375 3.5625V15.4375C2.375 15.7524 2.50011 16.0545 2.72281 16.2772C2.94551 16.4999 3.24756 16.625 3.5625 16.625H15.4375C15.7524 16.625 16.0545 16.4999 16.2772 16.2772C16.4999 16.0545 16.625 15.7524 16.625 15.4375V3.5625C16.625 3.24756 16.4999 2.94551 16.2772 2.72281C16.0545 2.50011 15.7524 2.375 15.4375 2.375ZM5.34375 3.5625V4.15625C5.34375 4.31372 5.40631 4.46474 5.51766 4.57609C5.62901 4.68744 5.78003 4.75 5.9375 4.75C6.09497 4.75 6.24599 4.68744 6.35734 4.57609C6.46869 4.46474 6.53125 4.31372 6.53125 4.15625V3.5625H12.4688V4.15625C12.4688 4.31372 12.5313 4.46474 12.6427 4.57609C12.754 4.68744 12.905 4.75 13.0625 4.75C13.22 4.75 13.371 4.68744 13.4823 4.57609C13.5937 4.46474 13.6562 4.31372 13.6562 4.15625V3.5625H15.4375V5.9375H3.5625V3.5625H5.34375ZM15.4375 15.4375H3.5625V7.125H15.4375V15.4375ZM12.592 9.07992C12.6472 9.13506 12.691 9.20055 12.7208 9.27263C12.7507 9.34471 12.7661 9.42197 12.7661 9.5C12.7661 9.57803 12.7507 9.65529 12.7208 9.72737C12.691 9.79945 12.6472 9.86494 12.592 9.92008L9.02945 13.4826C8.97431 13.5378 8.90883 13.5816 8.83675 13.6115C8.76467 13.6413 8.6874 13.6567 8.60938 13.6567C8.53135 13.6567 8.45408 13.6413 8.382 13.6115C8.30992 13.5816 8.24444 13.5378 8.1893 13.4826L6.40805 11.7013C6.29663 11.5899 6.23404 11.4388 6.23404 11.2812C6.23404 11.1237 6.29663 10.9726 6.40805 10.8612C6.51946 10.7498 6.67057 10.6872 6.82812 10.6872C6.98568 10.6872 7.13679 10.7498 7.2482 10.8612L8.60938 12.2231L11.7518 9.07992C11.8069 9.02472 11.8724 8.98092 11.9445 8.95104C12.0166 8.92116 12.0938 8.90578 12.1719 8.90578C12.2499 8.90578 12.3272 8.92116 12.3992 8.95104C12.4713 8.98092 12.5368 9.02472 12.592 9.07992Z" fill="#88CEFD"/>
</svg>
