<svg width="970" height="460" viewBox="0 0 970 460" fill="none" xmlns="http://www.w3.org/2000/svg">
<path fill-rule="evenodd" clip-rule="evenodd" d="M57.2773 74.5234C57.2773 59.89 69.14 48.0273 83.7734 48.0273H886.227C900.86 48.0273 912.723 59.89 912.723 74.5234V392.477C912.723 407.11 900.86 418.973 886.227 418.973H83.7734C69.1401 418.973 57.2773 407.11 57.2773 392.477V74.5234ZM83.7734 55.5977C73.321 55.5977 64.8477 64.0711 64.8477 74.5234V392.477C64.8477 402.929 73.321 411.402 83.7734 411.402H886.227C896.681 411.402 905.152 402.929 905.152 392.477V74.5234C905.152 64.0711 896.681 55.5977 886.227 55.5977H83.7734Z" fill="#7D90A0"/>
<path fill-rule="evenodd" clip-rule="evenodd" d="M79.9883 119.945C79.9883 109.493 88.4617 101.02 98.9141 101.02H871.086C881.541 101.02 890.012 109.493 890.012 119.945V377.336C890.012 387.788 881.541 396.262 871.086 396.262H98.9141C88.4617 396.262 79.9883 387.788 79.9883 377.336V119.945ZM98.9141 108.59C92.6428 108.59 87.5586 113.674 87.5586 119.945V377.336C87.5586 383.607 92.6428 388.691 98.9141 388.691H871.086C877.354 388.691 882.441 383.607 882.441 377.336V119.945C882.441 113.674 877.354 108.59 871.086 108.59H98.9141Z" fill="#7D90A0"/>
<path fill-rule="evenodd" clip-rule="evenodd" d="M235.18 191.863H189.758C187.668 191.863 185.973 193.558 185.973 195.648V233.5C185.973 235.59 184.278 237.285 182.188 237.285H144.336C142.246 237.285 140.551 238.98 140.551 241.07V286.492C140.551 288.582 142.246 290.277 144.336 290.277H182.188C184.278 290.277 185.973 291.972 185.973 294.062V331.914C185.973 334.015 187.662 335.699 189.743 335.699H235.199C237.277 335.699 238.965 334.018 238.965 331.914V294.062C238.965 291.972 240.66 290.277 242.75 290.277H280.602C282.692 290.277 284.387 288.582 284.387 286.492V241.07C284.387 238.98 282.692 237.285 280.602 237.285H242.75C240.66 237.285 238.965 235.59 238.965 233.5V195.648C238.965 193.558 237.27 191.863 235.18 191.863ZM189.758 184.293H235.18C241.451 184.293 246.535 189.377 246.535 195.648V229.715H280.602C286.873 229.715 291.957 234.799 291.957 241.07V286.492C291.957 292.763 286.873 297.848 280.602 297.848H246.535V331.914C246.535 338.172 241.484 343.27 235.199 343.27H189.743C183.461 343.27 178.402 338.175 178.402 331.914V297.848H144.336C138.065 297.848 132.98 292.763 132.98 286.492V241.07C132.98 234.799 138.065 229.715 144.336 229.715H178.402V195.648C178.402 189.377 183.487 184.293 189.758 184.293Z" fill="#7D90A0"/>
<path fill-rule="evenodd" clip-rule="evenodd" d="M337.379 271.352C337.379 265.08 342.463 259.996 348.734 259.996H560.703C566.974 259.996 572.059 265.08 572.059 271.352V331.914C572.059 338.185 566.974 343.27 560.703 343.27H348.734C342.463 343.27 337.379 338.185 337.379 331.914V271.352ZM348.734 267.566C346.644 267.566 344.949 269.261 344.949 271.352V331.914C344.949 334.004 346.644 335.699 348.734 335.699H560.703C562.793 335.699 564.488 334.004 564.488 331.914V271.352C564.488 269.261 562.793 267.566 560.703 267.566H348.734Z" fill="#7D90A0"/>
<path fill-rule="evenodd" clip-rule="evenodd" d="M609.91 263.781C609.91 257.51 614.994 252.426 621.266 252.426H696.969C703.24 252.426 708.324 257.51 708.324 263.781V339.484C708.324 345.756 703.24 350.84 696.969 350.84H621.266C614.994 350.84 609.91 345.756 609.91 339.484V263.781ZM621.266 259.996C619.175 259.996 617.48 261.691 617.48 263.781V339.484C617.48 341.575 619.175 343.27 621.266 343.27H696.969C699.059 343.27 700.754 341.575 700.754 339.484V263.781C700.754 261.691 699.059 259.996 696.969 259.996H621.266Z" fill="#7D90A0"/>
<path fill-rule="evenodd" clip-rule="evenodd" d="M723.465 263.781C723.465 257.51 728.549 252.426 734.82 252.426H810.523C816.792 252.426 821.879 257.51 821.879 263.781V339.484C821.879 345.756 816.792 350.84 810.523 350.84H734.82C728.549 350.84 723.465 345.756 723.465 339.484V263.781ZM734.82 259.996C732.73 259.996 731.035 261.691 731.035 263.781V339.484C731.035 341.575 732.73 343.27 734.82 343.27H810.523C812.613 343.27 814.309 341.575 814.309 339.484V263.781C814.309 261.691 812.613 259.996 810.523 259.996H734.82Z" fill="#7D90A0"/>
<path fill-rule="evenodd" clip-rule="evenodd" d="M337.379 165.367C337.379 159.096 342.463 154.012 348.734 154.012H560.703C566.974 154.012 572.059 159.096 572.059 165.367V188.078C572.059 194.349 566.974 199.434 560.703 199.434H348.734C342.463 199.434 337.379 194.349 337.379 188.078V165.367ZM348.734 161.582C346.644 161.582 344.949 163.277 344.949 165.367V188.078C344.949 190.168 346.644 191.863 348.734 191.863H560.703C562.793 191.863 564.488 190.168 564.488 188.078V165.367C564.488 163.277 562.793 161.582 560.703 161.582H348.734Z" fill="#7D90A0"/>
<path fill-rule="evenodd" clip-rule="evenodd" d="M337.379 218.359C337.379 212.088 342.463 207.004 348.734 207.004H560.703C566.974 207.004 572.059 212.088 572.059 218.359V241.07C572.059 247.342 566.974 252.426 560.703 252.426H348.734C342.463 252.426 337.379 247.342 337.379 241.07V218.359ZM348.734 214.574C346.644 214.574 344.949 216.269 344.949 218.359V241.07C344.949 243.16 346.644 244.855 348.734 244.855H560.703C562.793 244.855 564.488 243.16 564.488 241.07V218.359C564.488 216.269 562.793 214.574 560.703 214.574H348.734Z" fill="#7D90A0"/>
<path fill-rule="evenodd" clip-rule="evenodd" d="M367.66 301.633C367.66 295.362 372.744 290.277 379.016 290.277H424.438C430.709 290.277 435.793 295.362 435.793 301.633C435.793 307.904 430.709 312.988 424.438 312.988H379.016C372.744 312.988 367.66 307.904 367.66 301.633ZM379.016 297.848C376.925 297.848 375.23 299.543 375.23 301.633C375.23 303.723 376.925 305.418 379.016 305.418H424.438C426.528 305.418 428.223 303.723 428.223 301.633C428.223 299.543 426.528 297.848 424.438 297.848H379.016Z" fill="#7D90A0"/>
<path fill-rule="evenodd" clip-rule="evenodd" d="M473.645 301.633C473.645 295.362 478.729 290.277 485 290.277H530.422C536.693 290.277 541.777 295.362 541.777 301.633C541.777 307.904 536.693 312.988 530.422 312.988H485C478.729 312.988 473.645 307.904 473.645 301.633ZM485 297.848C482.91 297.848 481.215 299.543 481.215 301.633C481.215 303.723 482.91 305.418 485 305.418H530.422C532.512 305.418 534.207 303.723 534.207 301.633C534.207 299.543 532.512 297.848 530.422 297.848H485Z" fill="#7D90A0"/>
<path fill-rule="evenodd" clip-rule="evenodd" d="M337.379 377.336C337.379 371.065 342.463 365.98 348.734 365.98H560.703C566.974 365.98 572.059 371.065 572.059 377.336V392.477C572.059 394.567 570.364 396.262 568.273 396.262H341.164C339.074 396.262 337.379 394.567 337.379 392.477V377.336ZM348.734 373.551C346.644 373.551 344.949 375.246 344.949 377.336V388.691H564.488V377.336C564.488 375.246 562.793 373.551 560.703 373.551H348.734Z" fill="#7D90A0"/>
<path fill-rule="evenodd" clip-rule="evenodd" d="M572.059 135.086C572.059 141.357 566.974 146.441 560.703 146.441H348.734C342.463 146.441 337.379 141.357 337.379 135.086V104.805C337.379 102.715 339.074 101.02 341.164 101.02H568.273C570.364 101.02 572.059 102.715 572.059 104.805V135.086ZM560.703 138.871C562.793 138.871 564.488 137.176 564.488 135.086V108.59H344.949V135.086C344.949 137.176 346.644 138.871 348.734 138.871H560.703Z" fill="#7D90A0"/>
<path fill-rule="evenodd" clip-rule="evenodd" d="M659.117 275.137C644.484 275.137 632.621 286.999 632.621 301.633C632.621 316.266 644.484 328.129 659.117 328.129C673.751 328.129 685.613 316.266 685.613 301.633C685.613 286.999 673.751 275.137 659.117 275.137ZM625.051 301.633C625.051 282.818 640.303 267.566 659.117 267.566C677.932 267.566 693.184 282.818 693.184 301.633C693.184 320.447 677.932 335.699 659.117 335.699C640.303 335.699 625.051 320.447 625.051 301.633Z" fill="#7D90A0"/>
<path fill-rule="evenodd" clip-rule="evenodd" d="M772.672 275.137C758.038 275.137 746.176 286.999 746.176 301.633C746.176 316.266 758.038 328.129 772.672 328.129C787.305 328.129 799.168 316.266 799.168 301.633C799.168 286.999 787.305 275.137 772.672 275.137ZM738.605 301.633C738.605 282.818 753.857 267.566 772.672 267.566C791.484 267.566 806.738 282.818 806.738 301.633C806.738 320.447 791.484 335.699 772.672 335.699C753.857 335.699 738.605 320.447 738.605 301.633Z" fill="#7D90A0"/>
</svg>
